STARTFONT 2.1
FONT -thai-dbthaitext-bold-i-normal--19-140-100-100-p-59-tis620-0
SIZE 14 100 100
FONTBOUNDINGBOX 27 22 -7 -8
STARTPROPERTIES 25
FOUNDRY "thai"
FAMILY_NAME "dbthaitext"
WEIGHT_NAME "bold"
SLANT "i"
SETWIDTH_NAME "normal"
ADD_STYLE_NAME ""
PIXEL_SIZE 19
POINT_SIZE 140
RESOLUTION_X 100
RESOLUTION_Y 100
SPACING "p"
AVERAGE_WIDTH 59
CHARSET_REGISTRY "tis620"
CHARSET_ENCODING "0"
FONT "-thai-dbthaitext-bold-i-normal--19-140-100-100-p-59-tis620-0"
COPYRIGHT "Typeface (c) The Monotype Corporation plc. Data (c) The Monotype Corporation plc/Type Solutions Inc. 1990-1992. All Rights Reserved"
RAW_PIXELSIZE 1000
RAW_POINTSIZE 723
RAW_ASCENT 738
RAW_DESCENT 408
RAW_AVERAGE_WIDTH 3023
FACE_NAME "DBThaiTextBoldItalic"
DEFAULT_CHAR 0
FONT_ASCENT 14
FONT_DESCENT 8
ENDPROPERTIES
CHARS 190
STARTCHAR space
ENCODING 32
SWIDTH 257 0
DWIDTH 5 0
BBX 0 0 0 0
BITMAP
ENDCHAR
STARTCHAR exclam
ENCODING 33
SWIDTH 205 0
DWIDTH 4 0
BBX 4 9 0 -1
BITMAP
30
30
20
20
40
40
40
c0
80
ENDCHAR
STARTCHAR quotedbl
ENCODING 34
SWIDTH 257 0
DWIDTH 5 0
BBX 5 3 0 5
BITMAP
d8
d0
90
ENDCHAR
STARTCHAR numbersign
ENCODING 35
SWIDTH 308 0
DWIDTH 6 0
BBX 8 8 -1 0
BITMAP
0d
0a
12
3e
24
fc
58
d0
ENDCHAR
STARTCHAR dollar
ENCODING 36
SWIDTH 308 0
DWIDTH 6 0
BBX 7 9 0 -1
BITMAP
1c
3e
68
70
1c
1c
ec
f8
20
ENDCHAR
STARTCHAR percent
ENCODING 37
SWIDTH 514 0
DWIDTH 10 0
BBX 9 8 0 0
BITMAP
3080
5900
da00
fc00
1b80
3d80
6d80
cf00
ENDCHAR
STARTCHAR ampersand
ENCODING 38
SWIDTH 411 0
DWIDTH 8 0
BBX 7 8 0 0
BITMAP
1c
14
3c
10
7a
dc
9c
fc
ENDCHAR
STARTCHAR apostrophe
ENCODING 39
SWIDTH 154 0
DWIDTH 3 0
BBX 2 3 1 5
BITMAP
c0
80
80
ENDCHAR
STARTCHAR parenleft
ENCODING 40
SWIDTH 205 0
DWIDTH 4 0
BBX 5 10 0 -2
BITMAP
18
30
20
40
40
c0
c0
80
80
80
ENDCHAR
STARTCHAR parenright
ENCODING 41
SWIDTH 205 0
DWIDTH 4 0
BBX 5 10 -1 -2
BITMAP
18
08
08
08
18
10
10
20
60
40
ENDCHAR
STARTCHAR asterisk
ENCODING 42
SWIDTH 205 0
DWIDTH 4 0
BBX 4 4 0 4
BITMAP
20
f0
60
a0
ENDCHAR
STARTCHAR plus
ENCODING 43
SWIDTH 308 0
DWIDTH 6 0
BBX 6 5 0 0
BITMAP
10
10
fc
20
20
ENDCHAR
STARTCHAR comma
ENCODING 44
SWIDTH 205 0
DWIDTH 4 0
BBX 2 3 1 -1
BITMAP
40
40
40
ENDCHAR
STARTCHAR minus
ENCODING 45
SWIDTH 205 0
DWIDTH 4 0
BBX 3 3 0 2
BITMAP
20
e0
80
ENDCHAR
STARTCHAR period
ENCODING 46
SWIDTH 154 0
DWIDTH 3 0
BBX 2 2 0 0
BITMAP
40
c0
ENDCHAR
STARTCHAR slash
ENCODING 47
SWIDTH 154 0
DWIDTH 3 0
BBX 6 8 -1 0
BITMAP
04
08
08
10
20
40
40
80
ENDCHAR
STARTCHAR 0
ENCODING 48
SWIDTH 308 0
DWIDTH 6 0
BBX 6 8 0 0
BITMAP
1c
2c
44
4c
c8
88
90
e0
ENDCHAR
STARTCHAR 1
ENCODING 49
SWIDTH 308 0
DWIDTH 6 0
BBX 4 8 1 0
BITMAP
10
70
e0
20
60
40
c0
c0
ENDCHAR
STARTCHAR 2
ENCODING 50
SWIDTH 308 0
DWIDTH 6 0
BBX 7 8 -1 0
BITMAP
0e
36
22
04
08
30
60
f8
ENDCHAR
STARTCHAR 3
ENCODING 51
SWIDTH 308 0
DWIDTH 6 0
BBX 7 8 -1 0
BITMAP
1e
36
66
1c
1c
cc
f8
70
ENDCHAR
STARTCHAR 4
ENCODING 52
SWIDTH 308 0
DWIDTH 6 0
BBX 7 8 -1 0
BITMAP
06
0e
14
2c
4c
fc
18
18
ENDCHAR
STARTCHAR 5
ENCODING 53
SWIDTH 308 0
DWIDTH 6 0
BBX 7 8 0 0
BITMAP
1e
20
20
78
4c
0c
d8
f0
ENDCHAR
STARTCHAR 6
ENCODING 54
SWIDTH 308 0
DWIDTH 6 0
BBX 6 8 0 0
BITMAP
1c
2c
40
78
c8
88
90
e0
ENDCHAR
STARTCHAR 7
ENCODING 55
SWIDTH 308 0
DWIDTH 6 0
BBX 7 8 0 0
BITMAP
7e
04
08
10
30
60
40
c0
ENDCHAR
STARTCHAR 8
ENCODING 56
SWIDTH 308 0
DWIDTH 6 0
BBX 7 8 -1 0
BITMAP
1c
36
26
3c
6c
cc
d8
70
ENDCHAR
STARTCHAR 9
ENCODING 57
SWIDTH 308 0
DWIDTH 6 0
BBX 6 8 0 0
BITMAP
18
2c
44
4c
78
08
90
e0
ENDCHAR
STARTCHAR colon
ENCODING 58
SWIDTH 154 0
DWIDTH 3 0
BBX 3 6 0 0
BITMAP
20
00
00
00
80
80
ENDCHAR
STARTCHAR semicolon
ENCODING 59
SWIDTH 205 0
DWIDTH 4 0
BBX 4 7 0 -1
BITMAP
30
30
00
00
60
60
40
ENDCHAR
STARTCHAR less
ENCODING 60
SWIDTH 308 0
DWIDTH 6 0
BBX 6 5 0 0
BITMAP
0c
78
c0
70
18
ENDCHAR
STARTCHAR equal
ENCODING 61
SWIDTH 308 0
DWIDTH 6 0
BBX 7 3 0 1
BITMAP
7e
00
fc
ENDCHAR
STARTCHAR greater
ENCODING 62
SWIDTH 308 0
DWIDTH 6 0
BBX 6 4 0 1
BITMAP
60
38
0c
70
ENDCHAR
STARTCHAR question
ENCODING 63
SWIDTH 360 0
DWIDTH 7 0
BBX 6 8 1 0
BITMAP
7c
6c
cc
18
30
60
20
c0
ENDCHAR
STARTCHAR at
ENCODING 64
SWIDTH 565 0
DWIDTH 11 0
BBX 11 10 0 -2
BITMAP
0780
1860
22a0
4d20
d160
9240
9f80
c000
6200
3e00
ENDCHAR
STARTCHAR A
ENCODING 65
SWIDTH 411 0
DWIDTH 8 0
BBX 7 8 -1 0
BITMAP
06
0e
1e
12
32
7e
46
c2
ENDCHAR
STARTCHAR B
ENCODING 66
SWIDTH 411 0
DWIDTH 8 0
BBX 9 8 -1 0
BITMAP
3f00
3180
2380
7f00
6300
4300
c600
fc00
ENDCHAR
STARTCHAR C
ENCODING 67
SWIDTH 411 0
DWIDTH 8 0
BBX 8 8 0 0
BITMAP
1e
33
63
40
c0
c6
cc
78
ENDCHAR
STARTCHAR D
ENCODING 68
SWIDTH 411 0
DWIDTH 8 0
BBX 9 8 -1 0
BITMAP
3f00
3380
2180
6380
6300
6300
c600
fc00
ENDCHAR
STARTCHAR E
ENCODING 69
SWIDTH 360 0
DWIDTH 7 0
BBX 9 8 -1 0
BITMAP
3f80
3000
3000
3e00
6000
6000
4000
fe00
ENDCHAR
STARTCHAR F
ENCODING 70
SWIDTH 360 0
DWIDTH 7 0
BBX 9 8 -1 0
BITMAP
3f80
3000
3000
7e00
6000
6000
c000
c000
ENDCHAR
STARTCHAR G
ENCODING 71
SWIDTH 462 0
DWIDTH 9 0
BBX 9 8 0 0
BITMAP
1f00
3b80
7180
6000
e700
c300
e700
7e00
ENDCHAR
STARTCHAR H
ENCODING 72
SWIDTH 411 0
DWIDTH 8 0
BBX 9 8 0 0
BITMAP
3180
3180
2100
7f00
6300
4600
c600
c600
ENDCHAR
STARTCHAR I
ENCODING 73
SWIDTH 154 0
DWIDTH 3 0
BBX 4 8 0 0
BITMAP
30
30
20
60
60
40
c0
c0
ENDCHAR
STARTCHAR J
ENCODING 74
SWIDTH 308 0
DWIDTH 6 0
BBX 7 8 0 0
BITMAP
06
06
04
0c
0c
c8
d8
f0
ENDCHAR
STARTCHAR K
ENCODING 75
SWIDTH 411 0
DWIDTH 8 0
BBX 9 8 0 0
BITMAP
3380
3700
2c00
7800
7800
4c00
cc00
c400
ENDCHAR
STARTCHAR L
ENCODING 76
SWIDTH 360 0
DWIDTH 7 0
BBX 6 8 0 0
BITMAP
30
30
30
20
60
60
40
fc
ENDCHAR
STARTCHAR M
ENCODING 77
SWIDTH 462 0
DWIDTH 9 0
BBX 10 8 0 0
BITMAP
31c0
39c0
3a80
7b80
7d80
5d00
db00
db00
ENDCHAR
STARTCHAR N
ENCODING 78
SWIDTH 411 0
DWIDTH 8 0
BBX 9 8 0 0
BITMAP
3180
3980
3900
6b00
6b00
4e00
ce00
c600
ENDCHAR
STARTCHAR O
ENCODING 79
SWIDTH 462 0
DWIDTH 9 0
BBX 9 8 0 0
BITMAP
1f00
3b80
6180
e380
e380
c300
ee00
7c00
ENDCHAR
STARTCHAR P
ENCODING 80
SWIDTH 360 0
DWIDTH 7 0
BBX 9 8 -1 0
BITMAP
3f80
3180
2380
6300
7e00
6000
e000
c000
ENDCHAR
STARTCHAR Q
ENCODING 81
SWIDTH 462 0
DWIDTH 9 0
BBX 9 9 0 -1
BITMAP
1f00
3b80
6180
e380
e380
cb00
e600
7e00
0200
ENDCHAR
STARTCHAR R
ENCODING 82
SWIDTH 411 0
DWIDTH 8 0
BBX 9 8 -1 0
BITMAP
3f80
3180
2180
6300
7e00
6700
c600
c600
ENDCHAR
STARTCHAR S
ENCODING 83
SWIDTH 360 0
DWIDTH 7 0
BBX 8 8 0 0
BITMAP
1e
33
60
7c
1e
06
c6
78
ENDCHAR
STARTCHAR T
ENCODING 84
SWIDTH 360 0
DWIDTH 7 0
BBX 7 8 1 0
BITMAP
fe
30
30
20
60
60
40
40
ENDCHAR
STARTCHAR U
ENCODING 85
SWIDTH 411 0
DWIDTH 8 0
BBX 9 8 0 0
BITMAP
3180
7180
7300
6300
e700
c600
ee00
7800
ENDCHAR
STARTCHAR V
ENCODING 86
SWIDTH 360 0
DWIDTH 7 0
BBX 7 8 2 0
BITMAP
86
cc
cc
d8
f0
a0
e0
c0
ENDCHAR
STARTCHAR W
ENCODING 87
SWIDTH 514 0
DWIDTH 10 0
BBX 10 8 1 0
BITMAP
8cc0
cc80
dd80
dd00
ae00
ae00
cc00
c800
ENDCHAR
STARTCHAR X
ENCODING 88
SWIDTH 360 0
DWIDTH 7 0
BBX 9 8 -1 0
BITMAP
1180
1b00
1e00
0c00
1800
3c00
6c00
c400
ENDCHAR
STARTCHAR Y
ENCODING 89
SWIDTH 360 0
DWIDTH 7 0
BBX 7 8 2 0
BITMAP
c6
cc
58
70
60
60
c0
c0
ENDCHAR
STARTCHAR Z
ENCODING 90
SWIDTH 360 0
DWIDTH 7 0
BBX 9 8 -1 0
BITMAP
3f80
0300
0600
0c00
1800
3000
6000
fe00
ENDCHAR
STARTCHAR bracketleft
ENCODING 91
SWIDTH 205 0
DWIDTH 4 0
BBX 6 10 -1 -2
BITMAP
1c
10
10
30
20
20
60
40
40
e0
ENDCHAR
STARTCHAR backslash
ENCODING 92
SWIDTH 154 0
DWIDTH 3 0
BBX 1 8 1 0
BITMAP
80
80
80
80
80
80
80
80
ENDCHAR
STARTCHAR bracketright
ENCODING 93
SWIDTH 205 0
DWIDTH 4 0
BBX 6 10 -1 -2
BITMAP
1c
08
08
18
10
10
30
20
20
e0
ENDCHAR
STARTCHAR asciicircum
ENCODING 94
SWIDTH 308 0
DWIDTH 6 0
BBX 5 5 0 3
BITMAP
18
38
28
48
c8
ENDCHAR
STARTCHAR underscore
ENCODING 95
SWIDTH 308 0
DWIDTH 6 0
BBX 7 1 0 -2
BITMAP
fe
ENDCHAR
STARTCHAR grave
ENCODING 96
SWIDTH 154 0
DWIDTH 3 0
BBX 3 3 0 2
BITMAP
60
e0
c0
ENDCHAR
STARTCHAR a
ENCODING 97
SWIDTH 308 0
DWIDTH 6 0
BBX 6 6 0 0
BITMAP
3c
64
1c
68
88
f4
ENDCHAR
STARTCHAR b
ENCODING 98
SWIDTH 360 0
DWIDTH 7 0
BBX 7 8 -1 0
BITMAP
30
30
2e
76
66
66
ec
f8
ENDCHAR
STARTCHAR c
ENCODING 99
SWIDTH 308 0
DWIDTH 6 0
BBX 6 6 0 0
BITMAP
3c
6c
40
c0
d8
70
ENDCHAR
STARTCHAR d
ENCODING 100
SWIDTH 360 0
DWIDTH 7 0
BBX 8 8 0 0
BITMAP
03
02
3e
6e
ec
cc
dc
f8
ENDCHAR
STARTCHAR e
ENCODING 101
SWIDTH 308 0
DWIDTH 6 0
BBX 6 6 0 0
BITMAP
38
6c
7c
c0
c8
f0
ENDCHAR
STARTCHAR f
ENCODING 102
SWIDTH 205 0
DWIDTH 4 0
BBX 5 8 0 0
BITMAP
18
30
70
60
60
40
c0
c0
ENDCHAR
STARTCHAR g
ENCODING 103
SWIDTH 360 0
DWIDTH 7 0
BBX 8 8 -1 -2
BITMAP
1f
36
66
66
6e
7c
4c
f8
ENDCHAR
STARTCHAR h
ENCODING 104
SWIDTH 360 0
DWIDTH 7 0
BBX 7 8 -1 0
BITMAP
30
30
2e
76
66
6c
cc
cc
ENDCHAR
STARTCHAR i
ENCODING 105
SWIDTH 154 0
DWIDTH 3 0
BBX 4 8 0 0
BITMAP
30
00
20
60
60
40
c0
c0
ENDCHAR
STARTCHAR j
ENCODING 106
SWIDTH 154 0
DWIDTH 3 0
BBX 6 10 -2 -2
BITMAP
0c
00
08
18
18
30
30
30
60
e0
ENDCHAR
STARTCHAR k
ENCODING 107
SWIDTH 308 0
DWIDTH 6 0
BBX 7 8 -1 0
BITMAP
30
30
24
68
70
78
d8
d8
ENDCHAR
STARTCHAR l
ENCODING 108
SWIDTH 154 0
DWIDTH 3 0
BBX 4 8 0 0
BITMAP
30
30
20
60
60
40
c0
c0
ENDCHAR
STARTCHAR m
ENCODING 109
SWIDTH 514 0
DWIDTH 10 0
BBX 9 6 0 0
BITMAP
3f80
6c80
4880
4880
c900
c900
ENDCHAR
STARTCHAR n
ENCODING 110
SWIDTH 360 0
DWIDTH 7 0
BBX 7 6 0 0
BITMAP
2e
76
66
44
cc
cc
ENDCHAR
STARTCHAR o
ENCODING 111
SWIDTH 360 0
DWIDTH 7 0
BBX 6 6 0 0
BITMAP
38
6c
44
8c
d8
70
ENDCHAR
STARTCHAR p
ENCODING 112
SWIDTH 360 0
DWIDTH 7 0
BBX 8 8 -1 -2
BITMAP
1f
3b
33
73
76
7c
c0
c0
ENDCHAR
STARTCHAR q
ENCODING 113
SWIDTH 360 0
DWIDTH 7 0
BBX 7 8 0 -2
BITMAP
3e
6e
4c
cc
d8
68
18
10
ENDCHAR
STARTCHAR r
ENCODING 114
SWIDTH 205 0
DWIDTH 4 0
BBX 6 6 0 0
BITMAP
28
74
40
40
c0
c0
ENDCHAR
STARTCHAR s
ENCODING 115
SWIDTH 308 0
DWIDTH 6 0
BBX 6 6 0 0
BITMAP
3c
64
70
38
c8
70
ENDCHAR
STARTCHAR t
ENCODING 116
SWIDTH 205 0
DWIDTH 4 0
BBX 4 7 0 0
BITMAP
20
70
60
40
40
c0
c0
ENDCHAR
STARTCHAR u
ENCODING 117
SWIDTH 360 0
DWIDTH 7 0
BBX 7 6 0 0
BITMAP
66
64
44
cc
d8
e8
ENDCHAR
STARTCHAR v
ENCODING 118
SWIDTH 308 0
DWIDTH 6 0
BBX 6 6 1 0
BITMAP
cc
d8
d8
f0
e0
c0
ENDCHAR
STARTCHAR w
ENCODING 119
SWIDTH 462 0
DWIDTH 9 0
BBX 9 6 1 0
BITMAP
d980
db00
fb00
ee00
ec00
cc00
ENDCHAR
STARTCHAR x
ENCODING 120
SWIDTH 308 0
DWIDTH 6 0
BBX 8 6 -1 0
BITMAP
33
36
1c
38
7c
cc
ENDCHAR
STARTCHAR y
ENCODING 121
SWIDTH 308 0
DWIDTH 6 0
BBX 8 8 -1 -2
BITMAP
33
36
36
3c
38
30
30
e0
ENDCHAR
STARTCHAR z
ENCODING 122
SWIDTH 308 0
DWIDTH 6 0
BBX 7 6 -1 0
BITMAP
3e
0c
18
30
60
f8
ENDCHAR
STARTCHAR braceleft
ENCODING 123
SWIDTH 205 0
DWIDTH 4 0
BBX 5 10 0 -2
BITMAP
18
30
20
20
40
c0
40
c0
80
c0
ENDCHAR
STARTCHAR bar
ENCODING 124
SWIDTH 154 0
DWIDTH 3 0
BBX 4 10 0 -2
BITMAP
10
10
20
20
20
40
40
40
40
80
ENDCHAR
STARTCHAR braceright
ENCODING 125
SWIDTH 205 0
DWIDTH 4 0
BBX 5 10 -1 -2
BITMAP
18
08
18
10
18
10
20
20
60
c0
ENDCHAR
STARTCHAR asciitilde
ENCODING 126
SWIDTH 308 0
DWIDTH 6 0
BBX 5 2 1 2
BITMAP
40
b8
ENDCHAR
STARTCHAR exclamdown
ENCODING 161
SWIDTH 360 0
DWIDTH 7 0
BBX 7 7 0 0
BITMAP
1c
66
36
66
44
cc
8c
ENDCHAR
STARTCHAR cent
ENCODING 162
SWIDTH 360 0
DWIDTH 7 0
BBX 6 7 1 0
BITMAP
64
b4
d8
28
28
48
f0
ENDCHAR
STARTCHAR sterling
ENCODING 163
SWIDTH 411 0
DWIDTH 8 0
BBX 7 7 1 0
BITMAP
32
5a
b4
d4
24
24
78
ENDCHAR
STARTCHAR currency
ENCODING 164
SWIDTH 360 0
DWIDTH 7 0
BBX 6 7 1 0
BITMAP
38
44
b4
d4
e8
c8
88
ENDCHAR
STARTCHAR yen
ENCODING 165
SWIDTH 360 0
DWIDTH 7 0
BBX 6 7 1 0
BITMAP
18
74
b4
d4
e8
c8
88
ENDCHAR
STARTCHAR brokenbar
ENCODING 166
SWIDTH 462 0
DWIDTH 9 0
BBX 9 7 0 0
BITMAP
2880
5d80
f900
f100
7f00
7600
6200
ENDCHAR
STARTCHAR section
ENCODING 167
SWIDTH 308 0
DWIDTH 6 0
BBX 5 7 0 0
BITMAP
10
28
b8
90
d0
50
60
ENDCHAR
STARTCHAR diaeresis
ENCODING 168
SWIDTH 360 0
DWIDTH 7 0
BBX 5 7 1 0
BITMAP
78
c8
48
a8
d0
50
20
ENDCHAR
STARTCHAR copyright
ENCODING 169
SWIDTH 411 0
DWIDTH 8 0
BBX 7 7 0 0
BITMAP
1c
26
06
e4
fe
6e
4c
ENDCHAR
STARTCHAR ordfeminine
ENCODING 170
SWIDTH 360 0
DWIDTH 7 0
BBX 7 7 1 0
BITMAP
22
fc
d8
28
28
48
f0
ENDCHAR
STARTCHAR guillemotleft
ENCODING 171
SWIDTH 411 0
DWIDTH 8 0
BBX 8 7 0 0
BITMAP
29
5e
ac
d4
34
2c
78
ENDCHAR
STARTCHAR notsign
ENCODING 172
SWIDTH 462 0
DWIDTH 9 0
BBX 9 7 0 0
BITMAP
1880
6480
2500
4900
4900
be00
d200
ENDCHAR
STARTCHAR hyphen
ENCODING 173
SWIDTH 462 0
DWIDTH 9 0
BBX 9 10 1 -3
BITMAP
1880
6480
2500
4900
4900
aa00
de00
1200
2c00
3800
ENDCHAR
STARTCHAR registered
ENCODING 174
SWIDTH 411 0
DWIDTH 8 0
BBX 8 10 0 -3
BITMAP
0e
11
19
33
22
e2
c6
34
dc
ec
ENDCHAR
STARTCHAR macron
ENCODING 175
SWIDTH 411 0
DWIDTH 8 0
BBX 9 10 -1 -3
BITMAP
0700
1980
1d80
1980
3300
7300
e300
1e00
fe00
f600
ENDCHAR
STARTCHAR degree
ENCODING 176
SWIDTH 308 0
DWIDTH 6 0
BBX 9 11 -2 -4
BITMAP
0600
1900
0600
1e00
1e00
0600
0400
0c00
3c00
fc00
e800
ENDCHAR
STARTCHAR plusminus
ENCODING 177
SWIDTH 462 0
DWIDTH 9 0
BBX 9 7 0 0
BITMAP
2980
5f80
fd80
fd00
3b00
3300
2200
ENDCHAR
STARTCHAR twosuperior
ENCODING 178
SWIDTH 514 0
DWIDTH 10 0
BBX 9 7 1 0
BITMAP
3880
4c80
b500
b500
a900
de00
9200
ENDCHAR
STARTCHAR threesuperior
ENCODING 179
SWIDTH 514 0
DWIDTH 10 0
BBX 9 7 0 0
BITMAP
1880
6480
2500
4d00
4f00
aa80
db00
ENDCHAR
STARTCHAR acute
ENCODING 180
SWIDTH 360 0
DWIDTH 7 0
BBX 6 7 0 0
BITMAP
38
44
b4
b4
a8
c8
88
ENDCHAR
STARTCHAR mu
ENCODING 181
SWIDTH 360 0
DWIDTH 7 0
BBX 6 7 1 0
BITMAP
34
4c
b4
b4
a8
c8
88
ENDCHAR
STARTCHAR paragraph
ENCODING 182
SWIDTH 360 0
DWIDTH 7 0
BBX 6 7 1 0
BITMAP
38
44
24
44
48
a8
c8
ENDCHAR
STARTCHAR periodcentered
ENCODING 183
SWIDTH 411 0
DWIDTH 8 0
BBX 7 7 1 0
BITMAP
66
aa
fe
54
64
4c
88
ENDCHAR
STARTCHAR cedilla
ENCODING 184
SWIDTH 308 0
DWIDTH 6 0
BBX 7 7 0 0
BITMAP
18
26
1c
24
28
48
f8
ENDCHAR
STARTCHAR onesuperior
ENCODING 185
SWIDTH 411 0
DWIDTH 8 0
BBX 7 7 0 0
BITMAP
62
e6
e4
44
5c
ee
cc
ENDCHAR
STARTCHAR masculine
ENCODING 186
SWIDTH 360 0
DWIDTH 7 0
BBX 8 7 0 0
BITMAP
21
53
72
22
26
44
fc
ENDCHAR
STARTCHAR guillemotright
ENCODING 187
SWIDTH 360 0
DWIDTH 7 0
BBX 9 9 -1 0
BITMAP
0080
0100
2100
5300
7200
2200
2600
4400
fc00
ENDCHAR
STARTCHAR onequarter
ENCODING 188
SWIDTH 360 0
DWIDTH 7 0
BBX 8 7 0 0
BITMAP
19
2b
72
6a
7e
ec
84
ENDCHAR
STARTCHAR onehalf
ENCODING 189
SWIDTH 360 0
DWIDTH 7 0
BBX 9 9 -1 0
BITMAP
0080
0100
1900
2b00
7200
6a00
7e00
ee00
c400
ENDCHAR
STARTCHAR threequarters
ENCODING 190
SWIDTH 411 0
DWIDTH 8 0
BBX 8 7 0 0
BITMAP
61
ab
fa
5a
66
c4
84
ENDCHAR
STARTCHAR questiondown
ENCODING 191
SWIDTH 411 0
DWIDTH 8 0
BBX 9 9 0 0
BITMAP
0080
0100
6100
ab00
fa00
5600
6600
c600
c400
ENDCHAR
STARTCHAR Agrave
ENCODING 192
SWIDTH 411 0
DWIDTH 8 0
BBX 8 7 -1 0
BITMAP
0e
33
19
33
22
e6
c2
ENDCHAR
STARTCHAR Aacute
ENCODING 193
SWIDTH 360 0
DWIDTH 7 0
BBX 8 7 0 0
BITMAP
31
53
72
32
7e
ac
c4
ENDCHAR
STARTCHAR Acircumflex
ENCODING 194
SWIDTH 360 0
DWIDTH 7 0
BBX 7 7 0 0
BITMAP
12
2a
74
24
44
88
f8
ENDCHAR
STARTCHAR Atilde
ENCODING 195
SWIDTH 308 0
DWIDTH 6 0
BBX 7 7 1 0
BITMAP
3e
c4
30
10
10
70
60
ENDCHAR
STARTCHAR Adiaeresis
ENCODING 196
SWIDTH 360 0
DWIDTH 7 0
BBX 6 10 1 -3
BITMAP
38
44
24
44
44
a8
c8
08
10
10
ENDCHAR
STARTCHAR Aring
ENCODING 197
SWIDTH 360 0
DWIDTH 7 0
BBX 6 7 0 0
BITMAP
38
44
24
54
88
e8
c8
ENDCHAR
STARTCHAR AE
ENCODING 198
SWIDTH 411 0
DWIDTH 8 0
BBX 8 10 0 -3
BITMAP
0e
13
19
33
22
e2
c6
04
04
0c
ENDCHAR
STARTCHAR Ccedilla
ENCODING 199
SWIDTH 308 0
DWIDTH 6 0
BBX 5 7 1 0
BITMAP
78
88
08
08
10
30
60
ENDCHAR
STARTCHAR Egrave
ENCODING 200
SWIDTH 360 0
DWIDTH 7 0
BBX 7 7 1 0
BITMAP
3a
44
bc
d4
e8
88
88
ENDCHAR
STARTCHAR Eacute
ENCODING 201
SWIDTH 360 0
DWIDTH 7 0
BBX 9 7 0 0
BITMAP
3100
5100
7e80
3700
2e00
6400
fc00
ENDCHAR
STARTCHAR Ecircumflex
ENCODING 202
SWIDTH 360 0
DWIDTH 7 0
BBX 7 7 0 0
BITMAP
3c
44
3c
54
88
e8
c8
ENDCHAR
STARTCHAR Ediaeresis
ENCODING 203
SWIDTH 360 0
DWIDTH 7 0
BBX 7 7 0 0
BITMAP
66
aa
ec
54
64
cc
88
ENDCHAR
STARTCHAR Igrave
ENCODING 204
SWIDTH 411 0
DWIDTH 8 0
BBX 9 8 1 0
BITMAP
0200
4580
aa00
da00
5a00
6c00
c400
8400
ENDCHAR
STARTCHAR Iacute
ENCODING 205
SWIDTH 360 0
DWIDTH 7 0
BBX 6 7 0 0
BITMAP
3c
44
24
64
44
88
f0
ENDCHAR
STARTCHAR Icircumflex
ENCODING 206
SWIDTH 360 0
DWIDTH 7 0
BBX 8 7 0 0
BITMAP
3d
66
3e
74
64
cc
f8
ENDCHAR
STARTCHAR Idiaeresis
ENCODING 207
SWIDTH 360 0
DWIDTH 7 0
BBX 6 6 1 1
BITMAP
24
ec
f8
f8
18
10
ENDCHAR
STARTCHAR ETH
ENCODING 208
SWIDTH 257 0
DWIDTH 5 0
BBX 6 7 0 0
BITMAP
34
58
70
00
48
b0
e0
ENDCHAR
STARTCHAR Ntilde
ENCODING 209
SWIDTH 0 0
DWIDTH 0 0
BBX 6 3 -4 8
BITMAP
40
a8
f0
ENDCHAR
STARTCHAR Ograve
ENCODING 210
SWIDTH 308 0
DWIDTH 6 0
BBX 5 7 1 0
BITMAP
78
c8
18
10
10
30
20
ENDCHAR
STARTCHAR Oacute
ENCODING 211
SWIDTH 308 0
DWIDTH 6 0
BBX 7 10 -2 0
BITMAP
e0
c0
00
1e
12
02
04
04
0c
08
ENDCHAR
STARTCHAR Ocircumflex
ENCODING 212
SWIDTH 0 0
DWIDTH 0 0
BBX 5 3 -6 8
BITMAP
10
68
f8
ENDCHAR
STARTCHAR Otilde
ENCODING 213
SWIDTH 51 0
DWIDTH 1 0
BBX 6 3 -6 8
BITMAP
14
68
f8
ENDCHAR
STARTCHAR Odiaeresis
ENCODING 214
SWIDTH 0 0
DWIDTH 0 0
BBX 6 3 -7 8
BITMAP
1c
68
f8
ENDCHAR
STARTCHAR multiply
ENCODING 215
SWIDTH 51 0
DWIDTH 1 0
BBX 6 3 -6 8
BITMAP
14
68
f8
ENDCHAR
STARTCHAR Ooblique
ENCODING 216
SWIDTH 0 0
DWIDTH 0 0
BBX 3 4 -3 -5
BITMAP
e0
e0
40
40
ENDCHAR
STARTCHAR Ugrave
ENCODING 217
SWIDTH 0 0
DWIDTH 0 0
BBX 5 4 -5 -5
BITMAP
e8
f0
70
60
ENDCHAR
STARTCHAR Uacute
ENCODING 218
SWIDTH 0 0
DWIDTH 0 0
BBX 1 1 -2 -2
BITMAP
80
ENDCHAR
STARTCHAR Ucircumflex
ENCODING 219
SWIDTH 0 0
DWIDTH 0 0
BBX 1 1 -2 -5
BITMAP
80
ENDCHAR
STARTCHAR Udiaeresis
ENCODING 220
SWIDTH 0 0
DWIDTH 0 0
BBX 1 1 0 0
BITMAP
00
ENDCHAR
STARTCHAR Yacute
ENCODING 221
SWIDTH 0 0
DWIDTH 0 0
BBX 1 1 0 0
BITMAP
00
ENDCHAR
STARTCHAR THORN
ENCODING 222
SWIDTH 0 0
DWIDTH 0 0
BBX 1 1 0 0
BITMAP
00
ENDCHAR
STARTCHAR ssharp
ENCODING 223
SWIDTH 411 0
DWIDTH 8 0
BBX 9 10 -1 -1
BITMAP
0200
3f00
3780
2780
7f00
6b00
4b00
de00
fc00
1000
ENDCHAR
STARTCHAR agrave
ENCODING 224
SWIDTH 205 0
DWIDTH 4 0
BBX 3 7 0 0
BITMAP
20
20
40
40
c0
a0
c0
ENDCHAR
STARTCHAR aacute
ENCODING 225
SWIDTH 360 0
DWIDTH 7 0
BBX 6 7 0 0
BITMAP
24
64
48
48
c8
b4
d8
ENDCHAR
STARTCHAR acircumflex
ENCODING 226
SWIDTH 257 0
DWIDTH 5 0
BBX 6 12 0 0
BITMAP
3c
64
10
20
20
20
60
40
40
c0
a0
c0
ENDCHAR
STARTCHAR atilde
ENCODING 227
SWIDTH 257 0
DWIDTH 5 0
BBX 4 12 0 0
BITMAP
30
50
50
20
20
20
40
40
40
c0
a0
c0
ENDCHAR
STARTCHAR adiaeresis
ENCODING 228
SWIDTH 257 0
DWIDTH 5 0
BBX 4 12 1 0
BITMAP
50
70
60
60
20
20
40
40
40
80
e0
c0
ENDCHAR
STARTCHAR aring
ENCODING 229
SWIDTH 308 0
DWIDTH 6 0
BBX 5 10 1 -3
BITMAP
78
c8
18
10
10
30
20
20
60
40
ENDCHAR
STARTCHAR ae
ENCODING 230
SWIDTH 411 0
DWIDTH 8 0
BBX 5 10 3 -3
BITMAP
38
68
e8
d0
10
10
10
20
c0
80
ENDCHAR
STARTCHAR ccedilla
ENCODING 231
SWIDTH 0 0
DWIDTH 0 0
BBX 6 4 -6 8
BITMAP
04
78
f8
b8
ENDCHAR
STARTCHAR egrave
ENCODING 232
SWIDTH 0 0
DWIDTH 0 0
BBX 2 2 -2 12
BITMAP
40
80
ENDCHAR
STARTCHAR eacute
ENCODING 233
SWIDTH 0 0
DWIDTH 0 0
BBX 4 3 -3 11
BITMAP
d0
e0
40
ENDCHAR
STARTCHAR ecircumflex
ENCODING 234
SWIDTH 0 0
DWIDTH 0 0
BBX 5 3 -5 11
BITMAP
78
d8
40
ENDCHAR
STARTCHAR ediaeresis
ENCODING 235
SWIDTH 0 0
DWIDTH 0 0
BBX 3 2 -3 12
BITMAP
40
e0
ENDCHAR
STARTCHAR igrave
ENCODING 236
SWIDTH 0 0
DWIDTH 0 0
BBX 4 3 -4 11
BITMAP
70
c0
c0
ENDCHAR
STARTCHAR iacute
ENCODING 237
SWIDTH 0 0
DWIDTH 0 0
BBX 3 2 -4 8
BITMAP
e0
e0
ENDCHAR
STARTCHAR icircumflex
ENCODING 238
SWIDTH 0 0
DWIDTH 0 0
BBX 3 2 -4 10
BITMAP
e0
e0
ENDCHAR
STARTCHAR idiaeresis
ENCODING 239
SWIDTH 360 0
DWIDTH 7 0
BBX 7 7 0 0
BITMAP
1c
22
5a
ba
ba
9c
70
ENDCHAR
STARTCHAR eth
ENCODING 240
SWIDTH 360 0
DWIDTH 7 0
BBX 6 5 0 0
BITMAP
38
4c
c4
c8
70
ENDCHAR
STARTCHAR ntilde
ENCODING 241
SWIDTH 360 0
DWIDTH 7 0
BBX 6 6 1 -1
BITMAP
38
4c
b4
fc
78
10
ENDCHAR
STARTCHAR ograve
ENCODING 242
SWIDTH 411 0
DWIDTH 8 0
BBX 7 7 0 0
BITMAP
40
40
5e
7a
b2
a4
fc
ENDCHAR
STARTCHAR oacute
ENCODING 243
SWIDTH 411 0
DWIDTH 8 0
BBX 7 5 1 0
BITMAP
36
5a
d2
b4
d4
ENDCHAR
STARTCHAR ocircumflex
ENCODING 244
SWIDTH 411 0
DWIDTH 8 0
BBX 9 8 0 0
BITMAP
0080
0080
0100
3e00
5000
a800
b000
7c00
ENDCHAR
STARTCHAR otilde
ENCODING 245
SWIDTH 411 0
DWIDTH 8 0
BBX 9 8 0 0
BITMAP
0080
0880
1500
3e00
5000
a800
b000
7c00
ENDCHAR
STARTCHAR odiaeresis
ENCODING 246
SWIDTH 308 0
DWIDTH 6 0
BBX 5 8 0 0
BITMAP
40
40
40
78
08
48
b0
e0
ENDCHAR
STARTCHAR division
ENCODING 247
SWIDTH 411 0
DWIDTH 8 0
BBX 9 7 0 0
BITMAP
0080
0100
2d00
5500
8600
e600
c800
ENDCHAR
STARTCHAR oslash
ENCODING 248
SWIDTH 411 0
DWIDTH 8 0
BBX 9 7 0 0
BITMAP
0180
0180
3f00
6000
ee00
fe00
dc00
ENDCHAR
STARTCHAR ugrave
ENCODING 249
SWIDTH 360 0
DWIDTH 7 0
BBX 8 7 0 0
BITMAP
01
01
36
4a
b8
dc
ec
ENDCHAR
STARTCHAR uacute
ENCODING 250
SWIDTH 977 0
DWIDTH 19 0
BBX 20 1 0 3
BITMAP
fffff0
ENDCHAR
STARTCHAR ucircumflex
ENCODING 251
SWIDTH 514 0
DWIDTH 10 0
BBX 9 1 0 3
BITMAP
ff80
ENDCHAR
STARTCHAR udiaeresis
ENCODING 252
SWIDTH 0 0
DWIDTH 0 0
BBX 3 4 -4 -8
BITMAP
e0
e0
40
40
ENDCHAR
STARTCHAR yacute
ENCODING 253
SWIDTH 0 0
DWIDTH 0 0
BBX 5 4 -5 -8
BITMAP
e8
f0
50
60
ENDCHAR
STARTCHAR thorn
ENCODING 254
SWIDTH 411 0
DWIDTH 8 0
BBX 8 8 0 0
BITMAP
0e
31
5d
55
a9
aa
86
78
ENDCHAR
STARTCHAR ydiaeresis
ENCODING 255
SWIDTH 0 0
DWIDTH 0 0
BBX 1 1 0 0
BITMAP
00
ENDCHAR
ENDFONT
